<svg id="Capa_1" enable-background="new 0 0 512 512" height="512" viewBox="0 0 512 512" width="512" xmlns="http://www.w3.org/2000/svg"><g><g><path d="m298.257 320.914c-2.407-1.138-5.259-2.274-7.825-3.268-5.141 8.164-13.522 14.004-22.94 16.539l.777 5.9c12.38-1.247 27.437 8.076 20.676 22.323 24.968 2.047 32.357-29.998 9.312-41.494z" fill="#5b5d6d"/><path d="m227.516 321.755c-19.583 10.296-34.217 47.935.334 44.106-2.349-14.787 10.996-23.583 24.235-24.822l.027-5.945c-9.567-1.302-18.238-6.235-24.596-13.339z" fill="#5b5d6d"/><path d="m294.268 402.532-1.053-2.899c-1.874.741-4.362 1.742-6.253 2.388-4.385 13.582-17.847 22.999-32.192 23.242 2.876 55.861 66.224 35.112 39.498-22.731z" fill="#59bd8b"/><path d="m223.672 403.014-3.216-8.774c-5.676 18.36-8.808 39.671.259 57.368 14.255 16.602 28.504-14.092 31.613-26.427-12.684-1.58-24.327-10.128-28.656-22.167z" fill="#59bd8b"/><path d="m207.388 387.598c34.619 27.326 90.128 22.902 116.135-13.151 13.538-18.274 17.946-41.936 21.301-64.607 8.624-54.454 10.778-110.093-18.339-154.227-.76.155-18.58 37.541-19.983 36.344-9.686-8.882-15.466-22.136-19.47-34.693-3.918 20.371-11.901 40.649-25.39 56.07.4-23.626 2.444-52.607-2.691-77.819-23.823 37.745-49.23 57.789-91.68 70.753-7.389 4.494-6.32 26.038-6.639 38.41-5.26 50.748 6.569 114.626 46.756 142.92zm105.464-40.142c-2.281 9.083-11.116 15.917-20.495 15.834-10.89-.092-20.322-8.626-31.081-8.614-6.165-.055-12.589 2.815-19.196 6.249-55.73 27.015-42.705-44.727 11.576-49.148 22.033-2.115 64.412 5.6 59.196 35.679zm12.982-100.749c.171.362-.275.857-.651.651-12.307-5.663-27.44-3.064-38.843 1.996 10.201-7.761 27.715-8.103 39.494-2.647zm-42.664-17.844c10.189-9.252 24.455-17.887 37.975-18.692-12.983 3.724-27.274 9.227-37.274 19.412-.485.474-1.169-.283-.701-.72zm-34.281 58.563c10.408 3.802 16.211 3.919 26.781.617-6.323 4.98-20.717 4.649-26.781-.617zm-48.227-74.564v-3.001l.026 3.001c14.324.54 30.806 7.514 38.451 19.531-9.863-9.995-23.446-18.586-38.475-18.527-.623-.002-.65-1.004-.002-1.004zm-14.375 37.221c11.493-6.699 29.421-8.57 40.648-1.425-12.4-4.327-28.223-5.274-40.142 2.29-.504.363-1.074-.55-.506-.865z" fill="#ffdac4"/><path d="m260.502 406.497c-12.816.197-25.96-3.391-38.043-8.366 11.021 32.334 48.867 34.87 64.218 4.365-8.503 2.19-17.391 4.159-26.175 4.001z" fill="#ffdac4"/><path d="m282.246 343.843c-17.649-6.41-55.843-4.015-53.844 21.957 29.778-12.524 27.292-17.197 59.024-4.029 4.721-6.577 1.096-14.427-5.18-17.928z" fill="#fff"/><path d="m257.547 334.498c12.934.17 24.718-6.849 32.289-17.136-20.387-7.007-42.993-7.266-61.653 3.874 7.631 8.011 18.214 13.394 29.364 13.262z" fill="#fff"/><path d="m315.157 101.383c-1.435-.504-6.499 1.32-6.367-.54 8.385-8.81 18.419-25.366 6.059-35.538-13.152-8.074-24.633 5.849-31.612 15.936-1.495-.906 3.264-5.542 4.008-7.107 4.453-6.772 6.32-16.383-.738-21.978-16.644-7.59-23.938 13.408-21.932 27.795.015.547-.759.724-.971.194-6.704-28.705-39.044-28.226-29.685-2.529 2.85 5.426 8.037 9.38 12.612 12.866.417.304.139.914-.311.913-67.172-6.066-139.993 38.396-122.981 108.772 1.163 8.196 2.372 16.664 2.121 25.074-5.259 34.39-3.898 64.788 35.352 76.069-2.873-19.331-1.831-40.685-.947-64.324-.001-10.516-.001-26.407 6.914-31.52 11.623-5.616 25.728-7.483 36.77-15.158 20.978-11.389 46.299-37.578 54.768-57.823 7.393 18.587 5.622 55.157 3.895 79.714 14.314-19.583 24.346-43.321 24.443-67.626.094-.558-.26-1.49.423-1.712.297-.034.605.171.599.452-.506 17.54 6.891 34.951 19.065 47.598.806-.072 18.665-38.036 20.128-36.425 28.131 41.13 28.076 94.519 20.202 147.832 67.057-51.91 68.934-194.505-31.815-200.935z" fill="#644c4c"/><path d="m390.086 435.245c-32.328-29.632-65.435-40.182-86.145-41.414-3.111 1.986-6.505 3.768-9.823 5.37 28.444 60.571-32.243 83.757-41.058 29.168-27.018 64.257-48.736 8.364-34.713-30.301-57.581 11.634-128.574 39.1-136.561 101.077 115.729-2.71 233.334-1.818 348.818 2.606-3.619-22.477-10.082-38.149-40.518-66.506z" fill="#94c668"/><g fill="#d34242"><path d="m507.599 140.063-30.106-22.442-43.13 44.802c.225.328 29.554 18.039 29.507 18.566.281.506-38.907 45.095-39 45.487l3.535 4.682 70.821-32.866c.079-.627-19.679-31.543-18.758-32.2-.001-.002 27.131-26.029 27.131-26.029z"/><path d="m432.849 68.861c.599.548-21.538 40.691-21.513 41.211l4.623 3.666 51.15-44.576-22.619-18.764c-.24-.192-.221-.565-.005-.751l27.487-24.183-43.957-15.384c-5.795 10.557-20.563 41.539-31.28 64.055.383.206 35.905-6.029 36.114-5.274z"/><path d="m99.218 87.281c1.9-.87 3.752 46.867 4.416 47.253l5.851.677 19.148-60.046c-.4-.5-27.664-4.256-27.409-5.496-.001-.001 3.302-38.042 3.302-38.042l-55.02 19.256 22.076 54.636z"/><path d="m58.578 200.453c1.135-1.351 27.313 34.49 28.07 34.534l5.306-2.398-12.547-68.802-23.05 9.871c-.239.096-.502.039-.651-.242l-16.549-34.75-35.228 39.625 34.252 46.972z"/></g></g><g><path d="m68.099 107.582c.755 2.01 3.412 2.836 5.174 1.61l23.168-15.291 4.598 58.764c.184 3.73 5.783 4.392 6.825.79l24.748-77.619c.666-1.938-.68-4.182-2.703-4.506l-24.43-4.488c5.097-58.006 11.555-40.219-57.793-19.561-1.846.605-2.853 2.831-2.088 4.617zm33.036-71.588c-1.461 42.506-13.806 34.49 23.6 41.503l-18.111 56.799c-7.053-54.896 7.738-61.508-33.637-33.305l-19.52-48.313z"/><path d="m94.969 249.823c2.123.042 3.871-2.037 3.443-4.129l-15.186-83.244c-.337-2.155-2.842-3.5-4.823-2.589l-20.53 8.798-15.427-32.397c-.981-2.223-4.216-2.682-5.777-.82-.566 2.658-41.408 41.8-36.211 44.884.002.001 34.874 47.81 34.874 47.81.639.875 1.645 1.405 2.727 1.436 2.042 1.832 19.479-22.408 20.858-23.232l33.306 42.152c.679.862 1.701 1.332 2.746 1.331zm-33.252-51.23c-1.3-1.733-4.116-1.761-5.45-.053l-17.942 21.82-30.547-41.878 30.616-34.443c20.047 37.161 6.846 37.717 38.732 23.986l11.876 65.1z"/><path d="m396.416 78.233 29.673-4.566-27.113 51.213c-1.862 3.287 2.618 6.84 5.395 4.277l65.807-57.371c1.613-1.339 1.578-4.035-.066-5.333l-19.907-16.508c42.125-36.162 31.291-22.199-21.106-43.724-8.334 1.786-2.261-1.133-36.382 67.052-1.241 2.424 1.025 5.457 3.699 4.96zm33.03-64.47 36.687 12.84c-28.193 27.907-35.624 16.294-3.659 42.612l-48.482 42.266c21.746-46.894 40.573-50.643-12.115-41.172 9.871-20.761 23.322-48.676 27.569-56.546z"/><path d="m511.869 139.801c2.515-1.093-32.021-24.9-32.336-25.651-1.415-1.054-3.392-.892-4.615.378l-43.872 45.559c-1.538 1.519-1.19 4.304.672 5.4l26.338 16.399-46.825 54.275c-2.487 2.706.866 7.108 4.125 5.462l86.056-39.935c1.848-.808 2.605-3.26 1.532-4.969l-17.696-29.668c.642-1.308 28.578-25.632 26.621-27.25zm-33.477 24.126c-1.176 1.129-1.418 2.919-.583 4.32l17.135 28.726-67.799 31.462c45.447-57.554 53.793-40.05 11.944-66.604l38.733-40.222 25.146 18.746z"/><path d="m327.418 51.5c1.822 1.727 19.565-22.295 20.831-23.084 1.235-1.487 1.032-3.695-.454-4.93-1.487-1.236-3.693-1.032-4.93.454l-18.137 21.821c-1.927 2.167-.162 5.831 2.69 5.739z"/><path d="m337.579 60.566c-3.111 3.308 2.151 8.12 5.169 4.722 7.749-8.484 16.886-15.399 27.155-20.551 1.728-.867 2.426-2.971 1.559-4.699-4.865-7.57-29.583 15.829-33.883 20.528z"/><path d="m120.841 302.246h-28.686c-4.533-.066-4.548 7.068 0 7.001h28.685c4.534.066 4.549-7.068.001-7.001z"/><path d="m96.816 326.376c-3.923.895-3.101 7.012.869 6.892 1.054.078 26.286-6.763 27.301-6.898 4.406-1.065 2.642-7.974-1.744-6.781 0 0-26.426 6.787-26.426 6.787z"/><path d="m427.968 302.758-36.544-5.721c-4.469-.764-5.586 6.279-1.082 6.917.715.06 36.38 5.784 37.088 5.763 4.166.102 4.729-6.401.538-6.959z"/><path d="m429.122 336.917c3.342.125 4.846-4.689 1.9-6.443-6.182-4.118-42.323-23.496-45.889-14.504-.401 1.892.807 3.751 2.698 4.152 14.943 2.647 28.162 9.92 41.291 16.795z"/><path d="m388.321 331.357c-3.524-2.846-7.941 2.758-4.317 5.512 0 0 24.622 19.284 24.622 19.284 1.51 1.185 3.716.933 4.915-.597 1.192-1.522.924-3.722-.598-4.914z"/><path d="m275.594 361.712c50.55 23.123 65.402-58.66-22.256-52.919-19.942 2.115-37.713 13.145-46.376 28.783-9.293 15.834-2.324 32.752 15.62 32.734 19.072-.897 34.01-20.731 53.012-8.598zm33.377-15.232c-1.769 7.031-8.676 12.52-15.911 12.782 3.934-14.231-12.549-23.531-24.795-22.175 9.219-2.465 17.644-7.992 23.322-15.76 11.313 2.728 20.11 15.721 17.384 25.153zm-54.894-30.727c10.229-1.045 20.265.139 30.513 3.165-12.407 15.289-37.118 16.758-51.242 3.027 6.262-3.239 13.315-5.405 20.729-6.192zm-42.226 43.016c-6.74-12.057 5.542-26.048 15.291-33.096 6.556 6.712 15.302 11.078 24.55 12.395-12.955 1.208-27.747 9.821-27.065 25.122-4.29.455-9.832-.435-12.776-4.421zm30.515-2.477c-3.56 1.784-7.234 3.751-10.791 5.102 1.565-14.671 19.525-17.051 31.445-17.15 9.213-1.18 26.578 1.042 22.939 13.941-14.448-6.516-28.925-11.299-43.593-1.893z"/><path d="m225.036 251.649c4.098 1.929 7.057-4.575 2.879-6.382-13.213-9.493-57.862.693-41.371 8.751 11.848-5.933 26.029-8.332 38.492-2.369z"/><path d="m285.075 246.052c-4.016 2.157-.502 8.388 3.405 6.117 10.662-5.935 24.284-6.714 35.553-2.036 4.157 1.803 6.913-4.786 2.684-6.466-13.399-5.563-28.967-4.671-41.642 2.385z"/><path d="m283.517 232.726c11.368-7.763 23.296-17.148 37.785-19.027 1.899-.359 3.15-2.188 2.793-4.088-1.76-11.182-57.757 18.413-40.578 23.115z"/><path d="m200.573 216.861c13.602.378 26.885 6.875 35.533 17.38 2.837 3.546 8.346-.986 5.405-4.45-9.916-12.045-25.148-19.495-40.743-19.929-4.51-.188-4.755 6.936-.195 6.999z"/><path d="m247.679 290.749c5.408 4.411 32.601 6.431 30.701-3.999-2.575-5.691-14.498 5.797-27.401-2.177-3.968-2.199-7.342 4.096-3.3 6.176z"/><path d="m392.797 432.3c-21.037-19.384-52.069-37.555-79.52-41.489 24.389-19.174 31.356-50.979 35.504-80.385.727-2.548-.264-5.924 2.518-6.926 68.694-53.076 66.498-198.996-34.546-206.099 16.76-18.095 4.196-49.015-21.584-34.912-.712-24.814-32.139-17.927-33.912 3.045-19.015-27.197-47.777 1.052-24.849 21.761-56.472-1.288-114.949 29.928-119.178 85.758-1.066 17.676 4.58 34.582 4.127 52.07-6.018 34.442-2.109 68.701 36.848 79.505 6.458 40.57 24.295 72.376 53.769 90.896-54.873 10.161-128.88 43.238-134.13 103.768-.262 2.039 1.503 3.95 3.562 3.868 116.003-2.727 233.61-1.848 349.56 2.615 2.093.131 3.924-1.863 3.607-3.941-3.75-29.457-18.158-47.802-41.776-69.534zm-266.751-172.983c-1.074-11.08 1.998-22.631 2.309-33.984.57-17.452-5.115-34.769-4.135-51.87 1.467-24.805 18.012-48.97 43.18-63.067 20.685-11.585 47.18-16.974 78.73-16.007 3.227.266 4.993-4.432 2.108-6.375-19.691-11.312-16.002-35.356 3.356-23.187 4.598 4.067 7.025 10.523 9.158 16.245 1.207 3.754 7.031 2.693 6.824-1.188-4.18-28.323 22.896-35.374 20.207-14.194-.285 6.164-10.49 12.184-7.135 17.413 5.624 5.522 10.899-11.655 17.637-14.302 10.844-7.528 22.638 1.052 18.583 13.915-1.78 6.026-6.293 11.379-10.295 16.105-2.152 2.273-.1 6.247 2.939 5.829 97.612-2.231 103.534 136.884 41.538 189.518 7.103-48.062 4.93-103.51-21.76-141.323-1.369-2.239-4.943-1.977-6.018.284l-17.238 32.53c-9.816-11.195-15.496-26.139-15.474-41.017.409-5.894-8.072-6.665-7-.072-.364 19.817-6.655 39.735-17.607 56.349.914-6.337 2.436-86.253-10.622-70.29-9.248 22.936-32.267 44.748-53.378 57.081-11.169 7.839-25.37 9.267-37.056 15.342-8.14 6.025-8.132 22.179-8.127 33.974-.771 21.466-1.874 43.105.445 60.085-16.567-5.045-29.475-20.496-31.169-37.794zm39.13 44.589c-2.184-10.7-5.654-86.852 3.882-95.227 36.159-9.828 68.18-32.975 88.003-65.109 3.243 22.871 3.49 46.036.726 69.021-.185 1.534.658 3.008 2.075 3.626 11.659-1.12 25.314-37.047 27.778-48.374 3.778 8.951 10.361 23.973 19.753 27.212 2.524 1.429 18.017-32.285 19.278-33.389 31.564 46.964 25.26 161.604-5.554 210.992-56.05 67.404-148.718 12.02-155.941-68.752zm132.125 120.041c5.849 37.566-37.864 42.602-39.414 4.068 13.773-1.165 26.559-10.604 31.405-23.636.724-.265 1.444-.539 2.159-.823 2.411 6.628 4.845 13.467 5.85 20.391zm-43.209-2.827c-10.866-.382-21.354-7.723-25.88-17.618 16.625 6.261 34.68 7.849 51.851 3.673-5.552 8.562-15.817 14.308-25.971 13.945zm-33.239-17.072c4.36 11.89 15.257 21.018 27.646 23.447-21.247 55.6-37.364 9.162-27.646-23.447zm-135.507 92.016c8.45-55.908 77.459-83.75 128.753-93.854-3.723 13.488-4.009 28.043-.739 41.613 7.257 28.897 30.959 15.35 38.816-6.166 17.614 51.108 71.951 14.751 45.685-36.961 2.294-1.139 4.53-2.382 6.703-3.719 35.224-1.73 117.713 52.336 122.453 101.638-113.361-4.276-228.26-5.134-341.671-2.551z"/></g></g></svg>